<svg width="138" height="20" fill="none" xmlns="http://www.w3.org/2000/svg"><path fill-rule="evenodd" clip-rule="evenodd" d="M82.297 10.955 88.827 20H83.6l-4.357-6.037-3.02 2.976v3.015h-4.188V0h4.187v11.223l6.836-6.756h5.827l-6.588 6.488Zm-30.694 3.64C51.173 17.93 48.48 20 43.386 20c-5.316 0-8.336-2.677-8.336-7.846 0-5.073 3.097-7.845 8.336-7.845 2.195 0 3.94.55 5.251 1.465v-.006c2.997 2.024 3.266 5.31 3.026 7.44h-.155v.001H39.136c.288 2.076 1.529 3.105 4.25 3.105 2.512 0 3.757-.699 4.143-1.719h4.074ZM8.217 20c4.761 0 7.519-.753 7.519-4.607 0-3.399-3.38-4.17-6.66-4.68l-.56-.086-.279-.042-.35-.052c-2.7-.405-3.18-.788-3.18-1.471 0-.478.49-1.331 2.843-1.331 2.455 0 3.493.647 3.493 1.87v.134h4.282v-.133c0-2.389-1.35-5.238-7.775-5.238-5.952 0-7.201 2.584-7.201 4.752 0 3.097 2.763 4.086 7.223 4.675.21.028.433.054.659.081 1.669.197 3.172.42 3.172 1.585 0 1.01-1.615 1.222-3.298 1.222-2.797 0-3.784-.592-3.784-1.92v-.134H.002L0 14.927v.316c.008.79.118 1.913 1.057 2.862C2.303 19.362 4.712 20 8.217 20Zm13.21 0v-7.49c0-2.104.547-4.423 4.176-4.423 3.81 0 3.783 2.631 3.769 3.938l-.001.104V20h4.18v-7.768c0-2.264-.176-7.766-6.732-7.766-2.778 0-4.192.911-5.195 2.28h-.197V4.467h-4.206V20h4.206Zm26.058-9.574h-8.188c.486-1.574 1.764-2.431 4.089-2.431 2.994 0 3.755 1.267 4.099 2.431Zm23.014-5.969V20H66.29v-2.169h-.131C65.109 19.183 63.339 20 60.425 20c-6.509 0-7.242-5.679-7.242-7.771v-.137c.03-2.342.821-7.635 7.254-7.635 2.868 0 4.624.906 5.677 2.283h.176V4.457H70.5Zm-8.853 11.92c-3.997 0-4.448-3.032-4.448-4.148 0-1.21.425-4.148 4.455-4.148 3.631 0 4.374 2.044 4.374 4.148 0 2.35-.742 4.148-4.382 4.148ZM98.725 20c5.094 0 7.786-2.07 8.217-5.405h-4.074c-.387 1.02-1.631 1.72-4.143 1.72-2.722 0-3.962-1.03-4.25-3.106h12.527c.24-2.13-.029-5.417-3.026-7.44v.005c-1.312-.915-3.057-1.465-5.251-1.465-5.24 0-8.336 2.772-8.336 7.845 0 5.17 3.02 7.846 8.336 7.846Zm-4.089-9.574h8.187c-.343-1.164-1.104-2.431-4.098-2.431-2.326 0-3.603.857-4.089 2.431ZM112.76 20v-6.97c0-2.103.931-4.542 4.05-4.542 1.33 0 2.393.236 2.785.346l.67-3.976-.237-.053c-.683-.154-1.509-.34-2.52-.34-2.665 0-3.622.795-4.486 2.283h-.262V4.466h-4.209V20h4.209Zm24.74-4.607c0 3.854-2.758 4.607-7.519 4.607-3.505 0-5.914-.638-7.16-1.895-.939-.95-1.048-2.072-1.057-2.862l.001-.316.001-.302h4.319v.134c0 1.328.988 1.92 3.784 1.92 1.683 0 3.298-.212 3.298-1.221 0-1.167-1.503-1.39-3.172-1.586a53.457 53.457 0 0 1-.658-.08c-4.461-.59-7.224-1.579-7.224-4.676 0-2.168 1.249-4.752 7.201-4.752 6.425 0 7.775 2.849 7.775 5.238v.133h-4.282v-.134c0-1.223-1.038-1.87-3.493-1.87-2.352 0-2.843.853-2.843 1.331 0 .683.48 1.066 3.181 1.471l.349.053.279.041.56.085c3.28.51 6.66 1.283 6.66 4.681Z" fill="#1D2026"/></svg>